<svg width="1000" height="1000" viewBox="0 0 1000 1000" fill="none" xmlns="http://www.w3.org/2000/svg">
<g clip-path="url(#clip0_745_2167)">
<g filter="url(#filter0_d_745_2167)">
<path fill-rule="evenodd" clip-rule="evenodd" d="M950 500C655.558 500 394.14 358.605 229.942 140.011C305.161 83.4922 398.669 50 500 50C748.528 50 950 251.472 950 500Z" fill="#00FFFF"/>
<path d="M409.955 320.032C560.382 433.036 747.37 500 949.999 500C949.999 500 949.999 500 949.999 500C747.758 500 561.097 566.708 410.819 679.32C373.013 629.163 350.6 566.749 350.6 499.101C350.6 431.969 372.672 369.992 409.955 320.032Z" fill="#FF94FF"/>
<path d="M949.999 500C747.37 500 560.381 433.036 409.955 320.032C464.597 246.81 551.912 199.4 650.3 199.4C815.82 199.4 950 333.58 950 499.1C950 499.4 950 499.7 949.999 500Z" fill="#6B94FF"/>
<path fill-rule="evenodd" clip-rule="evenodd" d="M500 950C748.528 950 950 748.528 950 500C655.557 500 394.14 641.395 229.942 859.989C305.161 916.508 398.669 950 500 950Z" fill="#FFFF00"/>
<path d="M949.999 500C949.513 665.106 815.52 798.8 650.3 798.8C552.429 798.8 465.515 751.886 410.819 679.32C561.097 566.708 747.757 500 949.999 500Z" fill="#FF9500"/>
<path d="M950 500C950 589.47 877.47 662 788 662C698.53 662 626 589.47 626 500C626 410.53 698.53 338 788 338C877.47 338 950 410.53 950 500Z" fill="#4D3A4D"/>
</g>
</g>
<defs>
<filter id="filter0_d_745_2167" x="4" y="4" width="1000" height="1000" filterUnits="userSpaceOnUse" color-interpolation-filters="sRGB">
<feFlood flood-opacity="0" result="BackgroundImageFix"/>
<feColorMatrix in="SourceAlpha" type="matrix" values="0 0 0 0 0 0 0 0 0 0 0 0 0 0 0 0 0 0 127 0" result="hardAlpha"/>
<feOffset dx="4" dy="4"/>
<feGaussianBlur stdDeviation="25"/>
<feComposite in2="hardAlpha" operator="out"/>
<feColorMatrix type="matrix" values="0 0 0 0 0 0 0 0 0 0 0 0 0 0 0 0 0 0 0.25 0"/>
<feBlend mode="normal" in2="BackgroundImageFix" result="effect1_dropShadow_745_2167"/>
<feBlend mode="normal" in="SourceGraphic" in2="effect1_dropShadow_745_2167" result="shape"/>
</filter>
<clipPath id="clip0_745_2167">
<rect width="1000" height="1000" fill="white"/>
</clipPath>
</defs>
</svg>
